name processed_emg_signals
nRows=60
nColumns=7
 
endheader
time	RGLTMED	RRF	RADDLONG	RBF	RTA	RGM
0.11410099999999998	0.4401239093874859	0.4089044762645031	0.4222197347525069	0.1754004759968167	0.6738714243473239	0.210192994592459
0.11510099999999998	0.4398911089287197	0.4077544705554782	0.4213592624048071	0.1753209497968252	0.6760700090233417	0.2098440576941059
0.11610099999999998	0.4396797239932678	0.4066359735650341	0.420435118966631	0.1752408599520621	0.6783011484556213	0.209488290935793
0.11710099999999998	0.4394924439914944	0.405549670002885	0.4194491641640827	0.1751609609028816	0.6805641315375036	0.2091271462646441
0.11810099999999998	0.4393318535122806	0.4044960984114352	0.4184032540514818	0.1750819715664459	0.6828580330452878	0.2087620492963792
0.11910099999999998	0.4392004270068514	0.4034756552347873	0.4172992378093589	0.1750045742245092	0.6851817156111333	0.2083943965767304
0.12010099999999999	0.4391005237245062	0.4024885992542265	0.4161389546859965	0.1749294135280407	0.6875338322651912	0.2080255528854
0.12110099999999999	0.4390343829153582	0.4015350563726886	0.4149242310885814	0.1748570956199661	0.6899128295364322	0.2076568485915237
0.12210099999999999	0.4390041193137319	0.4006150247292773	0.4136568778286004	0.1747881873767868	0.6923169510999633	0.2072895770691826
0.12310099999999997	0.4390117189144522	0.3997283801236013	0.4123386875247608	0.174723215769644	0.6947442419566375	0.2069249921812468
0.12410099999999998	0.439059035052976	0.3988748817283479	0.4109714321653422	0.1746626673451323	0.6971925531287075	0.206564305839616
0.12510099999999996	0.4391477847992521	0.3980541780673032	0.4095568608305958	0.1746069878260087	0.6996595468531555	0.2062086856499231
0.12610099999999996	0.4392795456742718	0.3972658132348428	0.4080966975745487	0.1745565818316071	0.7021427022526943	0.2058592526488842
0.12710099999999996	0.4394557526972495	0.3965092333318907	0.4065926394645823	0.174511812717525	0.7046393214634213	0.2055170791424931
0.12810099999999996	0.4396776957705293	0.395783793092258	0.4050463547763884	0.1744730025338613	0.7071465361976721	0.2051831866530233
0.12910099999999997	0.439946517408299	0.3950887626722361	0.4034594813414871	0.1744404321010509	0.7096613147204667	0.2048585439823863
0.13010099999999997	0.4402632108145275	0.394423334575224	0.4018336250445854	0.1744143412022214	0.7121804692172901	0.2045440653990041
0.13110099999999997	0.4406286183147136	0.3937866306823259	0.400170358468717	0.1743949288909909	0.7147006635304625	0.2042406089550533
0.13210099999999997	0.4410434301453391	0.3931777093592701	0.398471219687081	0.1743823539136265	0.7172184212408395	0.2039489749406833
0.13310099999999997	0.4415081836040762	0.3925955726098131	0.396737711201431	0.1743767352445986	0.7197301340717758	0.2036699044813978
0.13410099999999997	0.4420232625628845	0.3920391732457415	0.3949712990275347	0.1743781527345762	0.7222320705925883	0.2034040782843492
0.13510099999999997	0.442588897345066	0.391507422043877	0.3931734119283841	0.1743866478697424	0.7247203851994259	0.2031521155387677
0.13610099999999997	0.4432051649661878	0.3909991948608304	0.3913454407958536	0.1744022246412141	0.7271911273519361	0.2029145729752316
0.13710099999999997	0.4438719897377975	0.390513339676576	0.3894887381814786	0.1744248505230086	0.7296402510447587	0.2026919440878993
0.13810099999999997	0.444589144231989	0.3900486835381013	0.3876046179770082	0.1744544575566863	0.732063624493683	0.2024846585233176
0.13910099999999997	0.4453562506045216	0.3896040393743569	0.3856943552455662	0.1744909435404882	0.7344570400175443	0.2022930816389662
0.14010099999999998	0.4461727822738951	0.3891782126535056	0.3837591862046423	0.1745341733204977	0.7368162240979029	0.2021175142342452
0.14110099999999998	0.4470380659535614	0.3887700078533282	0.3818003083626397	0.1745839801810849	0.739136847598886	0.2019581924561944
0.14210099999999995	0.4479512840340041	0.3883782347160007	0.3798188808114264	0.1746401673315251	0.7414145361295243	0.2018152878817243
0.14310099999999995	0.448911477310805	0.3880017142599504	0.37781602467784	0.174702509485282	0.7436448805304937	0.2016889077775711
0.14410099999999995	0.4499175480541492	0.3876392845239786	0.3757928237371541	0.1747707545279898	0.7458234474671344	0.2015790955386467
0.14510099999999995	0.4509682634146094	0.3872898060221171	0.3737503251909083	0.1748446252696255	0.7479457901111132	0.201485831304885
0.14610099999999995	0.4520622591593116	0.3869521668911351	0.3716895406103827	0.1749238212759696	0.7500074588945188	0.2014090327561523
0.14710099999999995	0.4531980437319635	0.3866252877159236	0.3696114470457712	0.1750080207739306	0.7520040123220822	0.2013485560842164
0.14810099999999995	0.4543740026295591	0.3863081260203891	0.3675169883000264	0.1750968826249812	0.7539310278287318	0.2013041971401287
0.14910099999999996	0.455588403088252	0.385999680412973	0.3654070763655691	0.1751900483604831	0.7557841126704071	0.2012756927547437
0.15010099999999996	0.456839399070592	0.3856989943766141	0.363282593021687	0.1752871442722429	0.7575589148359038	0.2012627222294885
0.15110099999999996	0.4581250365461289	0.3854051596939236	0.3611443915900956	0.1753877835510155	0.7592511339668688	0.2012649089938779
0.15210099999999996	0.4594432590569542	0.3851173195002769	0.3589932988458832	0.1754915684651934	0.7608565322719666	0.201281822425698
0.15310099999999996	0.4607919135591556	0.3848346709602996	0.3568301170809062	0.1755980925714811	0.7623709454198287	0.2013129798291147
0.15410099999999996	0.4621687565300836	0.3845564675659768	0.3546556263165623	0.175706942949186	0.7637902933936989	0.2013578485653931
0.15510099999999996	0.463571460329958	0.3842820210561978	0.3524705866628727	0.1758177024499162	0.7651105912888988	0.2014158483303132
0.15610099999999996	0.4649976198049298	0.384010702958369	0.3502757408205327	0.1759299519547803	0.7663279600324299	0.2014863535717747
0.15710099999999996	0.4664447591171712	0.3837419457528965	0.348071816722161	0.1760432726315444	0.7674386370023973	0.2015686960405197
0.15810099999999996	0.4679103387862293	0.3834752436622195	0.3458595303082796	0.1761572481843298	0.7684389865236142	0.2016621674663452
0.15910099999999996	0.469391762924469	0.3832101530676838	0.3436395884325092	0.1762714670883268	0.7693255102148189	0.2017660223515544
0.16010099999999997	0.470886386648002	0.3829462925600645	0.3414126918894302	0.176385524801731	0.770094857162292	0.2018794808729239
0.16110099999999997	0.4723915236431861	0.3826833426322663	0.3391795385572688	0.1764990259468328	0.7707438338939074	0.2020017318828739
0.16210099999999997	0.4739044538675075	0.3824210450249883	0.336940826646412	0.176611586452022	0.7712694141266463	0.2021319360001089
0.16310099999999997	0.4754224313623964	0.3821592017377027	0.334697258043466	0.1767228356465666	0.7716687482593758	0.2022692287795129
0.16410099999999997	0.4769426921541467	0.3818976737178822	0.3324495417395633	0.1768324183003024	0.7719391725812978	0.2024127239507532
0.16510099999999997	0.478462462217557	0.381636379241718	0.3301983973306767	0.1769399966005857	0.7720782181653074	0.2025615167145969
0.16610099999999997	0.4799789654754131	0.381375291999781	0.3279445585772605	0.1770452520589189	0.772083619414346	0.2027146870855274
0.16710099999999997	0.4814894318054067	0.3811144389015309	0.325688777010116	0.1771478873394503	0.7719533222274394	0.202871303268744
0.16810099999999994	0.4829911050249069	0.3808538976132631	0.3234318255690537	0.1772476280011613	0.7716854917503048	0.2030304250592013
0.16910099999999995	0.4844812508230326	0.3805937938451163	0.3211745022604777	0.1773442241452733	0.7712785196730165	0.2031911072498074
0.17010099999999995	0.4859571646088602	0.3803342984039869	0.31891763381943	0.1774374519593039	0.7707310310347162	0.2033524030355308
0.17110099999999995	0.4874161792442684	0.3800756240302443	0.3166620793610298	0.177527115149537	0.7700418904930184	0.203513367399702
0.17210099999999995	0.4888556726297437	0.3798180220368222	0.3144087340053892	0.1776130462542466	0.7692102080138047	0.2036730604684149
0.17310099999999995	0.4902730751112186	0.3795617787691783	0.312158532459157	0.1776951078305581	0.7682353439354166	0.2038305508186176
